<?xml version="1.0" encoding="utf-8"?>
<!-- Generator: Adobe Illustrator 16.0.0, SVG Export Plug-In . SVG Version: 6.00 Build 0)  -->
<!DOCTYPE svg PUBLIC "-//W3C//DTD SVG 1.1//EN" "http://www.w3.org/Graphics/SVG/1.1/DTD/svg11.dtd">
<svg version="1.1" id="Layer_1" xmlns="http://www.w3.org/2000/svg" xmlns:xlink="http://www.w3.org/1999/xlink" x="0px" y="0px"
	 width="338.839px" height="172.058px" viewBox="0 0 338.839 172.058" enable-background="new 0 0 338.839 172.058"
	 xml:space="preserve">
<rect x="4.243" y="4.064" fill-rule="evenodd" clip-rule="evenodd" fill="#D8D8D8" width="331" height="163.333"/>
<g>
	<path fill-rule="evenodd" clip-rule="evenodd" d="M0.551,151.008c0.023-5.251-0.01-10.501,0-15.752
		c0.006-4.691,0.062-9.383,0.046-14.074c-0.02-5.653-0.134-11.308-0.136-16.961C0.458,95.71,0.553,87.2,0.542,78.689
		C0.517,59.577,0.472,40.463,0.386,21.35C0.37,17.534,0.138,13.718,0.005,9.902C-0.047,8.397,0.257,7.05,1.865,6.114
		c-0.66-0.692-1.14-1.195-1.55-1.626c0.958-1.069,1.837-2.052,3.01-3.361c4.711,0.121,9.793,0.281,14.876,0.37
		c2.7,0.047,5.402-0.009,8.102-0.059c1.979-0.037,3.955-0.203,5.933-0.203C90.29,1.223,148.344,1.229,206.398,1.222
		c9.495-0.001,18.99-0.027,28.485-0.085c7.321-0.044,14.642-0.193,21.963-0.225c9.671-0.04,19.343,0.047,29.013-0.023
		c13.342-0.096,26.683-0.298,40.023-0.424c2.31-0.021,4.622,0.17,6.931,0.14c0.961-0.013,1.917-0.35,3.21-0.605
		c1.185,1.308,3.018,2.58,2.798,5.224c-0.945,11.408-0.221,22.841-0.404,34.262c-0.103,6.379-0.045,12.76-0.054,19.14
		c-0.005,3.731,0.023,7.462,0,11.193c-0.086,13.748-0.17,27.495-0.289,41.243c-0.069,8.111-0.235,16.223-0.298,24.334
		c-0.052,6.617-0.053,13.234-0.004,19.851c0.067,9.189,0.203,2.378,0.308,11.567c0.005,0.479,0.028,0.963-0.016,1.439
		c-0.14,1.506-0.534,2.112-1.97,2.238c-0.955,0.084-1.563,0.505-2.27,1.012c-0.477,0.342-1.16,0.562-1.748,0.556
		c-4.389-0.053-8.776-0.174-13.165-0.276c-6.456-0.15-12.912-0.348-19.369-0.443c-10.455-0.154-20.911-0.235-31.366-0.358
		c-8.151-0.097-16.302-0.198-24.453-0.318c-8.308-0.122-16.614-0.293-24.923-0.4c-9.958-0.13-19.916-0.218-29.875-0.317
		c-13.991-0.141-27.982-0.288-41.974-0.409c-13.562-0.118-27.126-0.212-40.688-0.309c-15.966-0.112-31.933-0.198-47.898-0.33
		c-12.573-0.104-25.146-0.269-37.72-0.388c-3.662-0.035-7.325,0.032-10.986-0.021c-1.891-0.028-3.786-0.166-5.667-0.372
		c-0.566-0.062-1.108-0.489-1.629-0.803c-1.957-1.181-2.279-2.798-2.057-5.084 M5.76,163.461c1.141,0,1.997,0,2.854,0
		c4.398,0,8.799-0.03,13.198,0.006c11.188,0.09,22.376,0.229,33.564,0.308c5.015,0.034,10.031-0.085,15.047-0.041
		c14.498,0.125,28.996,0.311,43.494,0.447c15.663,0.149,31.326,0.279,46.991,0.401c15.102,0.117,30.204,0.232,45.307,0.312
		c7.895,0.042,15.79-0.034,23.685,0.021c7.186,0.049,14.37,0.205,21.556,0.31c7.221,0.104,14.442,0.191,21.664,0.305
		c10.061,0.156,20.12,0.388,30.181,0.467c4.298,0.034,8.599-0.343,12.898-0.337c4.851,0.006,9.701,0.242,14.553,0.355
		c0.692,0.017,1.388-0.09,2.293-0.154c0-1.024,0-1.888,0-2.751c0-9.999-0.01-3.997,0.003-13.996
		c0.008-6.149,0.018-12.299,0.086-18.446c0.061-5.452,0.289-10.903,0.288-16.354c-0.001-7.238-0.17-14.476-0.235-21.714
		c-0.067-7.552-0.139-15.106-0.134-22.66c0.014-20.386,0.07-40.772,0.091-61.158c0.001-1.083-0.178-2.167-0.3-3.556
		c-1.509,0-2.848-0.018-4.187,0.003c-6.129,0.099-12.258,0.28-18.388,0.3c-14.061,0.045-28.122-0.029-42.184,0.032
		c-7.39,0.032-14.778,0.326-22.168,0.367c-25.024,0.14-50.048,0.228-75.072,0.312c-5.142,0.017-10.284-0.111-15.426-0.094
		c-6.21,0.021-12.418,0.166-18.628,0.188C122.411,6.388,108.03,6.412,93.65,6.425c-6.521,0.006-13.043-0.086-19.563-0.047
		c-5.645,0.033-11.288,0.258-16.932,0.273c-15.278,0.04-30.557,0-45.835,0.03C9.343,6.686,7.366,6.915,5.528,7.03
		c0.083,1.737,0.216,3.324,0.223,4.911c0.025,6.228,0.01,12.457,0.01,18.686c0,16.257,0,32.513,0,48.77c0,32.236,0,48.473,0,80.708
		C5.76,161.123,5.76,162.141,5.76,163.461z"/>
	<path fill-rule="evenodd" clip-rule="evenodd" d="M7.042,106.641c0-2.096,0-3.896,0-5.902c9.686-1.314,18.973-0.662,28.177,3.507
		c0.166-1.345,0.487-2.56,0.433-3.758c-0.163-3.506,1.012-6.747,1.801-10.065c0.249-1.047,0.986-1.616,1.98-2.183
		c1.972-1.124,3.901-0.761,5.967-0.677c4.617,0.188,9.246,0.066,13.869,0.054c0.544-0.002,1.088-0.109,1.772-0.183
		c0.188-1.465,0.522-2.867,0.509-4.267c-0.017-1.745,0.519-3.284,1.196-4.824c1.966-4.472,4.208-8.774,7.692-12.29
		c3.111-3.14,6.999-5.051,11.117-6.332c2.778-0.863,5.767-1.051,8.662-1.535c0.234-0.039,0.48-0.011,0.717-0.048
		c2.999-0.464,3.261-0.875,3.489-3.983c0.47-6.402,2.55-12.33,6.04-17.663c4.791-7.319,11.67-11.952,20.093-14.071
		c4.527-1.14,9.202-1.703,13.821-2.458c2.666-0.436,5.35-0.763,8.032-1.089c2.998-0.364,6.001-0.686,9.005-1
		c6.019-0.631,12.051-0.863,18.104-0.879c4.131-0.011,8.265-0.329,12.393-0.585c3.095-0.192,6.179-0.617,9.274-0.725
		c2.4-0.083,4.812,0.163,7.218,0.267c0.398,0.017,0.798,0.084,1.194,0.067c6.158-0.253,12.284,0.265,18.364,1.091
		c6.834,0.93,13.765,1.321,20.377,3.631c5.037,1.759,9.676,4.104,13.509,7.875c1.981,1.95,3.938,3.928,5.899,5.898
		c2.158,2.166,3.054,5.028,3.917,7.801c0.626,2.01,0.561,4.234,0.82,6.361c0.143,1.171,0.322,2.337,0.48,3.47
		c2.315,0.198,4.5,0.634,6.654,0.513c3.485-0.196,6.625,1.004,9.737,2.126c3.571,1.287,6.974,3.045,10.439,4.62
		c0.349,0.158,0.857,0.415,0.911,0.698c0.276,1.463,1.518,1.956,2.515,2.697c3.813,2.835,6.169,6.812,8.491,10.815
		c0.102,0.174,0.22,0.338,0.69,0.468c0-0.758,0.001-1.516-0.001-2.274c-0.006-3.439-0.049-6.879,0.003-10.317
		c0.016-1,0.301-1.996,0.478-3.084c0.872-0.063,1.537-0.112,2.357-0.171c0-0.843-0.101-1.646,0.039-2.405
		c0.077-0.415,0.56-0.756,0.858-1.13c0.323,0.381,0.764,0.717,0.935,1.157c0.162,0.419,0.043,0.947,0.048,1.427
		c0.015,1.508-0.177,3.036,0.652,4.441c0.179,0.303,0.121,0.768,0.11,1.157c-0.104,3.736-0.248,7.471-0.324,11.208
		c-0.049,2.377,0.235,4.783-0.041,7.128c-0.771,6.535-0.19,13.08-0.401,19.615c-0.054,1.653-0.161,3.304-0.253,5.136
		c0.671,0.225,1.389,0.466,2.346,0.787c0-0.817-0.008-1.485,0.001-2.153c0.03-2.219,0.066-4.438,0.1-6.656
		c2.224-3.407,0.483-7.085,0.726-10.628c0.122-1.788,0.48-3.606,0.287-5.361c-0.389-3.515,0.213-6.954,0.421-10.42
		c0.124-2.058,0.525-4.1,0.646-6.158c0.068-1.167-0.027-2.394-0.33-3.519c-0.249-0.923-0.215-1.603,0.222-2.471
		c1.179-2.34,2.844-3.105,5.108-1.915c0.575,0.303,1.14,1.256,1.143,1.912c0.011,3.422-0.181,6.845-0.258,10.268
		c-0.026,1.188,0.081,2.377,0.109,3.566c0.048,1.941,0.804,3.942-0.515,5.854c2.644,2.932,3.146,6.703,4.043,10.453
		c0.087-0.394,0.246-0.787,0.249-1.182c0.013-1.678-0.004-3.357-0.044-5.035c-0.032-1.391,0.202-2.817-0.917-4.015
		c-0.309-0.33-0.244-1.066-0.248-1.616c-0.046-6.542-0.082-13.083-0.091-19.625c-0.002-0.947,0.185-1.893,0.221-2.842
		c0.035-0.92,0.559-1.278,1.377-1.309c0.947-0.035,1.221,0.59,1.234,1.393c0.071,4.297,0.178,8.595,0.189,12.893
		c0.019,6.752-0.051,13.505-0.042,20.257c0.008,5.243,0.076,10.486,0.124,15.729c0.004,0.393,0.062,0.784,0.119,1.448
		c0.834-0.364,1.525-0.666,2.359-1.029c0-1.57,0.006-3.081-0.002-4.592c-0.021-4.631,0.381-9.317-0.202-13.876
		c-0.529-4.145-0.048-8.243-0.405-12.347c-0.221-2.545,0.361-5.535,1.301-7.165c1.033,0.252,1.552,0.802,1.564,1.975
		c0.047,4.379,0.18,8.758,0.274,13.137c0.005,0.237,0.043,0.534-0.077,0.703c-1.956,2.768-0.828,5.891-0.961,8.842
		c-0.184,4.085-0.047,8.186-0.047,12.529c1.773-0.471,3.383-0.897,5.215-1.384c0,1.934,0,3.571,0,5.454
		c-0.742,0.353-1.5,0.739-2.279,1.075c-0.511,0.22-1.101,0.286-1.575,0.559c-3.873,2.223-8.132,2.512-12.457,2.664
		c-8.469,0.299-16.271-2.188-23.951-5.387c-4.89-2.036-9.958-2.826-15.098-0.962c-1.393,0.505-2.642,1.448-3.9,2.276
		c-3.454,2.273-6.855,4.627-10.32,6.884c-3.53,2.298-7.551,3.403-11.599,4.232c-5.576,1.143-11.252,0.964-16.812-0.029
		c-3.486-0.622-6.869-1.911-10.239-3.071c-3.689-1.27-7.322-2.707-10.957-4.126c-1.855-0.725-3.632-1.652-5.496-2.348
		c-6.864-2.558-13.871-3.573-21.033-1.402c-2.276,0.69-4.485,1.653-6.643,2.668c-2.803,1.318-5.464,2.943-8.292,4.196
		c-3.433,1.521-7.065,2.447-10.828,2.758c-1.899,0.157-3.818,0.493-5.701,0.362c-6.819-0.475-13.697-0.756-20.175-3.278
		c-4.156-1.619-8.21-3.504-12.368-5.122c-4.151-1.616-8.375-3.042-12.837-3.593c-3.739-0.462-7.562-0.673-11.165,0.247
		c-3.109,0.794-6.013,2.479-8.931,3.927c-4.07,2.018-8,4.326-12.113,6.246c-6.412,2.992-13.266,4-20.268,3.387
		c-5.032-0.441-9.73-2.181-14.201-4.619c-4.607-2.513-9.316-4.854-14.074-7.069c-1.99-0.927-4.182-1.563-6.349-1.938
		C17.403,105.54,12.323,105.133,7.042,106.641z M67.345,87.761c0.995,0.093,1.925,0.274,2.848,0.245
		c2.544-0.079,5.084-0.334,7.628-0.362c5.346-0.06,10.692,0.003,16.039-0.031c1.833-0.012,3.664-0.229,5.497-0.234
		c2.941-0.009,5.885,0.172,8.824,0.108c3.99-0.086,7.975-0.413,11.964-0.48c5.25-0.087,10.504,0.023,15.755-0.032
		c8.937-0.095,17.872-0.254,26.808-0.385c9.258-0.136,18.517-0.271,27.774-0.397c0.636-0.009,1.272,0.074,1.91,0.107
		c1.746,0.092,3.497,0.31,5.237,0.241c3.735-0.147,7.462-0.53,11.198-0.657c5.426-0.185,10.856-0.232,16.285-0.333
		c0.479-0.009,0.966-0.036,1.438,0.028c1.334,0.181,2.09,0.852,2.024,2.211c-0.05,1.022-0.566,2.021-0.91,3.146
		c4.531,0.639,9.141,0.641,13.308-0.035c1.095-1.416,1.967-2.544,3.069-3.969c-0.077-1.714-0.187-3.898-0.271-6.084
		c-0.043-1.115,0.395-1.673,1.623-1.266c0.174,1.018-0.001,2.409,0.589,2.923c1.13,0.984,1.014,2.099,1.019,3.233
		c0.038,8.867,0.027,17.734,0.048,26.602c0.002,0.65,0.129,1.302,0.198,1.953c0.545-0.203,0.764-0.443,0.779-0.696
		c0.171-2.7,0.451-5.404,0.431-8.104c-0.06-7.857-0.249-15.713-0.374-23.569c-0.027-1.749,0.104-3.506-0.032-5.244
		c-0.093-1.178,1.072-1.227,1.448-1.971c0.123-0.242,0.909-0.149,1.386-0.208c0.769,6.593,0.518,12.972,1.234,19.339
		c0.713,6.324-0.003,12.81,0.718,19.37c0.812-0.268,1.548-0.509,2.27-0.746c0.075-0.439,0.18-0.751,0.175-1.062
		c-0.079-5.329-0.178-10.658-0.253-15.988c-0.006-0.445,0.11-0.896,0.201-1.34c0.138-0.671,0.422-1.335,0.438-2.006
		c0.053-2.399,0.018-4.8,0.018-7.199c-0.001-2.379,0-4.758,0-6.976c-0.684-0.423-1.205-0.746-1.615-1
		c0-1.442,0.023-2.696-0.005-3.95c-0.058-2.456-0.151-4.912-0.214-7.367c-0.016-0.637-0.016-1.307,1.033-1.37
		c0.121,0.249,0.291,0.499,0.368,0.774c0.486,1.718-0.055,3.701,1.772,5.104c0.56,0.43,0.34,1.954,0.363,2.98
		c0.021,0.928-0.114,1.859-0.181,2.786c1.586,0.105,2.716,0.816,2.865,1.893c0.251,1.809,0.459,3.631,0.546,5.454
		c0.091,1.911,0.03,3.83,0.013,5.746c-0.067,7.044,0.342,14.112-1.076,21.249c1.083-0.696,2.081-1.303,3.041-1.965
		c1.061-0.73,1.604-1.58,1.146-3.022c-0.326-1.026-0.229-2.213-0.194-3.323c0.088-2.854,0.246-5.705,0.375-8.557
		c0.183-4.057,0.388-8.111,0.54-12.168c0.149-3.954,0.26-7.91,0.354-11.865c0.027-1.152,1.333-3.19,2.254-3.22
		c1.549-0.052,3.108-0.092,4.649,0.038c1.72,0.145,2.742,1.454,2.67,3.089c-0.122,2.758-0.26,5.517-0.302,8.277
		c-0.016,1.004-0.349,1.753-0.854,2.621c-0.948,1.63-2.567,1.355-3.922,1.772c-0.562,7.097-0.339,14.131,0.114,21.375
		c1.497-0.805,2.737-1.472,4.176-2.245c0-1.164,0.021-2.436-0.004-3.707c-0.094-4.822-0.213-9.645-0.294-14.467
		c-0.015-0.892-0.245-1.908,0.875-2.605c1.739,1.447,0.189,3.547,1.123,5.243c0.663-1.098,1.233-2.042,1.941-3.215
		c1.253,3.074,1.853,5.909,1.664,9c-0.174,2.829,0.137,5.688,0.242,8.777c0.844-0.346,1.389-0.568,1.651-0.676
		c0-1.857,0.012-3.447-0.002-5.036c-0.047-5.423-0.094-10.845-0.157-16.268c-0.034-2.87-0.118-5.738-0.147-8.608
		c-0.007-0.669-0.181-1.47,0.959-1.882c1.599,1.726,0.236,3.984,0.95,5.925c0.663-0.042,1.307-0.083,1.637-0.104
		c0-3.612,0-7.054,0-10.476c-5.804-3.666-12.004-5.516-18.653-5.703c-4.207-0.119-8.426,0.172-12.639,0.18
		c-14.626,0.027-29.251,0.011-43.876,0.011c-5.2,0-10.403-0.104-15.599,0.035c-3.641,0.097-7.268,0.453-10.912-0.006
		c-0.906-0.114-1.857,0.12-2.918,0.204c-0.133,1.705-0.253,3.246-0.381,4.892c-0.478-0.121-0.78-0.269-1.081-0.264
		c-4.814,0.074-9.628,0.171-14.442,0.254c-0.559,0.01-1.119-0.016-1.677-0.047c-4.043-0.222-8.083-0.565-12.128-0.638
		c-3.461-0.063-6.928,0.262-10.393,0.274c-11.173,0.041-22.345,0.015-33.517,0.018c-1.531,0-3.077-0.117-4.59,0.052
		c-3.52,0.394-7.022,0.938-10.534,1.403c-1.752,0.231-3.509,0.42-5.263,0.628c0.004,0.127,0.007,0.254,0.012,0.381
		c2.654,0,5.31,0,8.352,0c-0.661,0.411-0.925,0.718-1.188,0.716c-3.163-0.022-6.326-0.108-9.49-0.132
		c-0.692-0.005-1.421,0.062-2.072,0.278c-3.274,1.085-5.796,3.188-7.952,5.846C69.254,76.023,67.286,81.386,67.345,87.761z
		 M219.217,22.796c-0.152-0.077-0.288-0.197-0.434-0.21c-5.537-0.476-11.068-1.189-16.615-1.347
		c-6.69-0.188-13.396,0.021-20.092,0.2c-4.614,0.123-9.221,0.516-13.834,0.733c-3.431,0.161-6.867,0.212-10.299,0.356
		c-1.749,0.074-3.499,0.192-5.238,0.387c-4.977,0.557-9.943,1.188-14.921,1.735c-2.124,0.232-4.4-0.078-6.363,0.582
		c-2.897,0.975-5.852,1.416-8.814,1.906c-6.793,1.125-12.14,4.603-16.264,10c-2.904,3.803-4.554,8.161-5.278,12.891
		c-0.337,2.196-0.284,2.375,1.907,2.387c4.695,0.023,9.392,0.058,14.086-0.008c3.635-0.051,7.268-0.297,10.903-0.365
		c3.577-0.066,7.156-0.013,10.735-0.018c1.717-0.002,3.434-0.05,5.15-0.02c2.594,0.045,5.188,0.242,7.779,0.196
		c7.395-0.132,14.787-0.404,22.183-0.512c2.068-0.03,4.214-0.518,6.213,0.503c6.125-0.056,12.251-0.079,18.375-0.182
		c3.264-0.055,6.524-0.312,9.788-0.359c2.126-0.03,4.258,0.259,6.385,0.224c8.044-0.132,16.087-0.37,24.132-0.503
		c5.112-0.084,10.226-0.043,15.339-0.088c0.589-0.005,1.178-0.198,1.707-0.293c0.024-3.784-0.498-7.142-2.137-10.397
		c-1.339-2.66-3.412-4.58-5.369-6.646c-1.256-1.326-2.624-2.577-4.081-3.678c-4.143-3.129-9.079-4.479-13.939-5.963
		c-0.799-0.244-1.675-0.234-2.798-0.378c-0.209,4.929-0.406,9.584-0.613,14.456c-2.604,0-4.929,0-7.115,0
		c-0.386-0.653-0.803-1.052-0.829-1.476c-0.036-0.586,0.329-1.19,0.334-1.788C219.234,31.076,219.217,27.029,219.217,22.796z
		 M139.826,92.9c-0.071,0.757-0.145,1.146-0.139,1.533c0.036,2.619-2.075,4.129-4.261,4.343c-2.831,0.276-5.673,0.456-8.515,0.606
		c-2.312,0.122-4.629,0.144-6.944,0.203c-3.061,0.08-6.122,0.214-9.183,0.216c-3.184,0.002-6.369-0.24-9.549-0.168
		c-5.42,0.125-10.836,0.449-16.256,0.609c-1.662,0.049-3.333-0.246-5-0.243c-2.21,0.004-4.43,0.32-6.627,0.191
		c-4.192-0.248-8.377-0.477-12.576-0.26c-2.067,0.107-4.136,0.199-6.204,0.289c-1.161,0.05-2.322,0.082-3.572,0.125
		c0,4.05,0,7.824,0,11.79c5.135,2.263,10.482,3.058,16.162,1.978c6.644-1.264,12.465-4.4,18.091-7.858
		c6.806-4.183,14.099-6.266,22.021-5.956c7.005,0.273,13.566,2.547,20.021,5.093c3.855,1.521,7.655,3.186,11.518,4.688
		c5.106,1.988,10.522,2.27,15.904,2.683c1.269,0.097,2.565,0.231,3.816,0.083c5.278-0.624,10.163-2.486,14.814-4.993
		c5.501-2.965,11.172-5.284,17.5-5.939c5.831-0.604,11.507-0.044,16.961,1.851c6.241,2.169,12.316,4.814,18.48,7.21
		c2.72,1.057,5.481,2.008,8.282,3.027c0-3.358,0.056-6.43-0.019-9.497c-0.056-2.271,1.786-3.976,4.417-3.914
		c2.054,0.049,3.147,1.385,2.947,3.73c-0.276,3.246-0.42,6.474,0.626,9.628c0.067,0.203,0.156,0.397,0.269,0.68
		c0.503-0.06,0.957-0.113,1.712-0.203c-0.155-5.273-0.309-10.485-0.458-15.569c-3.612,0.211-7.005,0.548-10.4,0.58
		c-8.683,0.081-17.367,0.035-26.052,0.022c-2.255-0.004-4.672,0.778-6.544-1.287c-0.153-0.169-0.596-0.055-0.893-0.12
		c-2.237-0.493-3.232-1.797-3.089-4.043c0.024-0.381,0.087-0.759,0.151-1.305c-1.565,0-2.992,0.043-4.417-0.009
		c-2.99-0.107-5.979-0.39-8.967-0.37c-4.06,0.026-8.116,0.302-12.176,0.396c-1.098,0.025-2.205-0.348-3.302-0.314
		c-3.734,0.111-7.463,0.417-11.196,0.473C151.469,92.962,145.752,92.9,139.826,92.9z M315.662,80.176
		c-2.128-0.166-1.888,1.415-1.995,2.429c-0.351,3.305-0.566,6.626-0.756,9.947c-0.271,4.742-0.475,9.489-0.715,14.412
		c1.312,0,2.687,0,4.299,0c-0.218-3.39,0.456-6.615-0.675-9.824c-0.57-1.619-0.718-3.391-1.033-5.097
		C314.05,88.063,314.48,84.164,315.662,80.176z M291.299,82.398c0-1.129-0.098-2.091,0.027-3.022
		c0.126-0.935,0.585-1.827,0.702-2.762c0.202-1.607,1.097-2.39,2.696-2.442c-1.356-2.88-2.936-4.907-4.21-5.472
		c-0.084,0.71-0.099,1.439-0.267,2.131c-0.548,2.261-1.019,4.629-4.114,4.406c0.237,2.406,0.457,4.644,0.648,6.581
		C288.445,82.031,289.735,82.197,291.299,82.398z M301.933,98.863c-0.263-1.273-0.361-2.497-0.787-3.594
		c-0.396-1.02,0.44-2.65-1.569-3.194c0.398,4.092,0.777,7.992,1.171,12.039c1.409,0.524,2.902,1.079,4.677,1.739
		c-0.539-1.623-1.086-2.787-1.288-4.009C303.894,100.387,303.343,99.303,301.933,98.863z"/>
	<path fill-rule="evenodd" clip-rule="evenodd" d="M194.747,74.135c-0.827,0.074-1.592,0.199-2.356,0.201
		c-6.856,0.016-13.714-0.04-20.57,0.035c-2.682,0.029-5.359,0.35-8.04,0.515c-1.076,0.066-2.157,0.127-3.232,0.086
		c-0.866-0.032-1.998-1.265-2.113-2.245c-0.074-0.63-0.028-1.275-0.029-1.914c-0.002-1.684-0.001-3.367-0.001-5.419
		c1.979-0.248,4.213-0.654,6.462-0.775c2.626-0.141,5.268,0.005,7.901-0.042c4.224-0.076,8.449-0.152,12.669-0.342
		c2.171-0.097,4.329-0.458,6.496-0.661c0.707-0.066,1.425-0.01,2.201-0.01C195.595,67.01,195.107,70.454,194.747,74.135z"/>
	<path fill-rule="evenodd" clip-rule="evenodd" d="M137.508,65.416c0.407,3.16,1.099,6.267-0.222,9.378
		c-3.833,0-7.598-0.035-11.361,0.008c-4.925,0.056-9.851,0.155-14.774,0.277c-1.093,0.027-2.182,0.225-3.271,0.354
		c-0.907,0.108-1.488-0.24-1.9-1.085c-1.312-2.698-0.796-5.491-0.788-8.459c2.047-0.182,3.854-0.464,5.664-0.482
		c6.06-0.058,12.125,0.1,18.18-0.092c1.977-0.062,4.048,0.581,6.021-0.5C135.536,64.554,136.479,65.14,137.508,65.416z"/>
	<path fill-rule="evenodd" clip-rule="evenodd" d="M224.947,73.959c-0.207-1.754-0.485-3.233-0.526-4.719
		c-0.043-1.501,0.101-3.013,0.253-4.511c0.139-1.36,0.698-1.739,1.839-1.533c2.798,0.505,5.608,0.256,8.426,0.168
		c3.791-0.118,7.588-0.029,11.549-0.029c0.193,3.488,0.385,6.937,0.59,10.624C239.634,73.959,232.45,73.959,224.947,73.959z"/>
</g>
<path d="M24.158,143.339l2.995-8.72c0.13-0.335,0.309-0.576,0.536-0.725s0.555-0.223,0.982-0.223h2.285
	c0.297,0,0.522,0.081,0.676,0.243c0.153,0.163,0.229,0.397,0.229,0.704c0,0.353-0.095,0.597-0.286,0.731s-0.541,0.202-1.051,0.202
	h-0.223l0.39,12.676h0.32c0.604,0,1.007,0.067,1.212,0.202c0.204,0.135,0.307,0.388,0.307,0.759c0,0.325-0.084,0.573-0.251,0.745
	s-0.409,0.258-0.724,0.258h-3.915c-0.539,0-0.905-0.074-1.1-0.223c-0.195-0.148-0.293-0.409-0.293-0.78
	c0-0.362,0.116-0.613,0.349-0.752c0.232-0.14,0.678-0.209,1.337-0.209h0.599L28.24,136.25l-2.758,8.01
	c-0.139,0.39-0.311,0.659-0.515,0.808c-0.205,0.148-0.511,0.223-0.919,0.223c-0.39,0-0.688-0.076-0.892-0.229
	s-0.372-0.42-0.501-0.801l-2.8-8.01l-0.25,11.979h0.933c0.548,0,0.933,0.074,1.156,0.223c0.223,0.148,0.334,0.395,0.334,0.738
	c0,0.371-0.097,0.632-0.292,0.78c-0.195,0.148-0.566,0.223-1.114,0.223h-3.9c-0.325,0-0.569-0.084-0.731-0.251
	c-0.163-0.167-0.244-0.418-0.244-0.752c0-0.371,0.102-0.624,0.307-0.759c0.204-0.135,0.608-0.202,1.212-0.202h0.307l0.404-12.676
	H17.75c-0.511,0-0.863-0.067-1.059-0.202c-0.195-0.135-0.292-0.379-0.292-0.731c0-0.307,0.079-0.541,0.237-0.704
	c0.158-0.162,0.385-0.243,0.683-0.243h2.285c0.427,0,0.754,0.074,0.982,0.223s0.401,0.39,0.522,0.725L24.158,143.339z"/>
<path d="M35.232,135.678H35.01c-0.557,0-0.94-0.074-1.149-0.223s-0.313-0.409-0.313-0.78c0-0.344,0.088-0.597,0.265-0.76
	c0.176-0.162,0.441-0.243,0.794-0.243h0.627h2.855c0.752,0,1.23,0.072,1.435,0.216c0.204,0.144,0.306,0.406,0.306,0.787
	c0,0.371-0.121,0.632-0.362,0.78c-0.242,0.148-0.702,0.223-1.379,0.223h-0.599v7.634c0,1.03,0.048,1.78,0.146,2.249
	c0.097,0.47,0.257,0.898,0.479,1.289c0.324,0.566,0.776,1.008,1.355,1.323c0.58,0.315,1.221,0.474,1.926,0.474
	c1.325,0,2.292-0.399,2.899-1.198c0.607-0.799,0.911-2.09,0.911-3.872v-7.898h-0.734c-0.72,0-1.203-0.072-1.447-0.216
	c-0.245-0.145-0.367-0.406-0.367-0.787s0.097-0.644,0.292-0.787c0.195-0.144,0.598-0.216,1.209-0.216h3.071h0.667
	c0.333,0,0.586,0.083,0.757,0.251c0.171,0.167,0.257,0.418,0.257,0.752c0,0.371-0.102,0.632-0.304,0.78s-0.571,0.223-1.104,0.223
	H47.31v8.204c0,2.257-0.504,3.949-1.511,5.078c-1.008,1.128-2.524,1.692-4.548,1.692c-1.83,0-3.29-0.564-4.381-1.692
	c-1.091-1.129-1.637-2.649-1.637-4.562V135.678z"/>
<path d="M54.302,149.706c-0.046,0.418-0.153,0.708-0.32,0.87c-0.167,0.163-0.432,0.244-0.794,0.244c-0.39,0-0.681-0.114-0.871-0.342
	c-0.19-0.228-0.3-0.596-0.328-1.107l-0.181-3.231v-0.251c0-0.445,0.085-0.761,0.257-0.947c0.172-0.186,0.458-0.278,0.857-0.278
	c0.557,0,0.956,0.399,1.198,1.198c0.111,0.399,0.218,0.701,0.32,0.905c0.325,0.65,0.838,1.151,1.54,1.505
	c0.701,0.353,1.539,0.529,2.514,0.529c1.198,0,2.17-0.283,2.918-0.851c0.747-0.565,1.121-1.29,1.121-2.173
	c0-0.733-0.23-1.323-0.689-1.769c-0.459-0.446-1.131-0.733-2.013-0.864l-2.062-0.278c-1.922-0.27-3.325-0.775-4.207-1.519
	c-0.882-0.742-1.323-1.787-1.323-3.134c0-1.421,0.587-2.614,1.762-3.58c1.174-0.966,2.64-1.448,4.395-1.448
	c0.511,0,1.049,0.067,1.616,0.201c0.566,0.135,1.207,0.347,1.922,0.634c0.019-0.269,0.093-0.454,0.223-0.557
	c0.13-0.103,0.353-0.153,0.668-0.153c0.409,0,0.692,0.061,0.85,0.181c0.158,0.121,0.255,0.409,0.293,0.864l0.195,2.911v0.14
	c0,0.325-0.093,0.578-0.279,0.759c-0.186,0.181-0.446,0.271-0.78,0.271c-0.493,0-0.873-0.344-1.143-1.03
	c-0.13-0.391-0.26-0.683-0.39-0.878c-0.307-0.464-0.748-0.822-1.323-1.072c-0.576-0.251-1.231-0.376-1.964-0.376
	c-1.124,0-2.036,0.278-2.737,0.835c-0.701,0.558-1.052,1.287-1.052,2.188c0,0.706,0.263,1.263,0.787,1.672
	c0.525,0.408,1.326,0.687,2.403,0.835l2.229,0.279c1.616,0.213,2.832,0.708,3.649,1.483s1.226,1.822,1.226,3.141
	c0,1.561-0.581,2.812-1.741,3.754c-1.161,0.942-2.712,1.414-4.653,1.414c-0.668,0-1.333-0.079-1.992-0.236
	C55.746,150.286,55.045,150.04,54.302,149.706z"/>
<path d="M69.527,150.193h-0.655c-0.334,0-0.587-0.084-0.759-0.251c-0.172-0.167-0.258-0.418-0.258-0.752
	c0-0.371,0.1-0.624,0.299-0.759s0.657-0.202,1.372-0.202h0.892v-12.551h-0.892c-0.696,0-1.149-0.072-1.358-0.216
	c-0.209-0.145-0.313-0.406-0.313-0.787c0-0.344,0.085-0.597,0.258-0.76c0.171-0.162,0.434-0.243,0.787-0.243h0.627h11.506
	c0.316,0,0.555,0.095,0.718,0.285c0.162,0.19,0.244,0.467,0.244,0.829v3.287c0,0.483-0.07,0.817-0.209,1.003
	c-0.139,0.187-0.39,0.279-0.752,0.279c-0.381,0-0.643-0.103-0.787-0.307c-0.145-0.204-0.216-0.664-0.216-1.379v-1.992H72.62v4.694
	h3.65v-0.738c0-0.502,0.067-0.85,0.202-1.045c0.135-0.195,0.369-0.292,0.704-0.292c0.325,0,0.55,0.104,0.676,0.312
	c0.125,0.209,0.188,0.657,0.188,1.345v2.591c0,0.696-0.065,1.143-0.195,1.337c-0.13,0.195-0.362,0.293-0.696,0.293
	s-0.564-0.111-0.689-0.334c-0.125-0.224-0.188-0.655-0.188-1.296v-0.487h-3.65v6.171h7.411v-2.257c0-0.715,0.072-1.175,0.216-1.379
	c0.144-0.204,0.406-0.307,0.787-0.307c0.353,0,0.602,0.096,0.746,0.285c0.144,0.19,0.216,0.551,0.216,1.08v3.51
	c0,0.335-0.083,0.59-0.251,0.767c-0.167,0.177-0.404,0.265-0.71,0.265H69.527z"/>
<path d="M100.145,141.918c0,2.545-0.706,4.632-2.117,6.262c-1.412,1.63-3.218,2.444-5.419,2.444c-2.182,0-3.981-0.816-5.397-2.451
	c-1.417-1.635-2.125-3.72-2.125-6.255c0-2.562,0.701-4.654,2.104-6.275c1.402-1.62,3.208-2.431,5.418-2.431
	c2.201,0,4.007,0.817,5.419,2.452C99.439,137.298,100.145,139.383,100.145,141.918z M92.609,148.661c1.56,0,2.788-0.598,3.685-1.794
	c0.896-1.195,1.344-2.845,1.344-4.948c0-2.103-0.448-3.752-1.344-4.948c-0.896-1.195-2.125-1.794-3.685-1.794
	c-1.569,0-2.797,0.594-3.684,1.78c-0.887,1.187-1.331,2.841-1.331,4.962c0,2.104,0.448,3.753,1.344,4.948
	C89.834,148.063,91.058,148.661,92.609,148.661z"/>
<path d="M119.617,148.229h0.543c0.39,0,0.673,0.076,0.85,0.229c0.176,0.153,0.265,0.397,0.265,0.731
	c0,0.325-0.083,0.573-0.251,0.745c-0.167,0.172-0.409,0.258-0.724,0.258h-6.867c-0.316,0-0.558-0.086-0.725-0.258
	s-0.25-0.42-0.25-0.745c0-0.344,0.09-0.59,0.271-0.738s0.49-0.223,0.926-0.223h0.459h0.878v-12.551h-0.878
	c-0.706,0-1.158-0.072-1.358-0.216c-0.2-0.145-0.299-0.406-0.299-0.787c0-0.325,0.083-0.573,0.25-0.745s0.409-0.258,0.725-0.258
	h12.328c0.315,0,0.555,0.095,0.717,0.285s0.244,0.467,0.244,0.829v3.594c0,0.325-0.081,0.569-0.244,0.731s-0.402,0.244-0.717,0.244
	c-0.39,0-0.655-0.103-0.794-0.307s-0.209-0.664-0.209-1.379v-1.992h-7.564v4.694h3.678v-0.362c0-0.678,0.064-1.133,0.195-1.365
	c0.13-0.231,0.362-0.348,0.696-0.348c0.297,0,0.513,0.088,0.648,0.265c0.134,0.176,0.202,0.459,0.202,0.85v3.538
	c0,0.464-0.063,0.784-0.188,0.961c-0.125,0.177-0.346,0.265-0.662,0.265c-0.334,0-0.566-0.116-0.696-0.349
	c-0.13-0.231-0.195-0.687-0.195-1.365v-0.403h-3.678v6.171H119.617z"/>
<path d="M144.384,141.918c0,2.545-0.706,4.632-2.117,6.262c-1.412,1.63-3.218,2.444-5.419,2.444c-2.182,0-3.981-0.816-5.397-2.451
	c-1.417-1.635-2.125-3.72-2.125-6.255c0-2.562,0.701-4.654,2.104-6.275c1.402-1.62,3.208-2.431,5.418-2.431
	c2.201,0,4.007,0.817,5.419,2.452C143.678,137.298,144.384,139.383,144.384,141.918z M136.848,148.661
	c1.56,0,2.788-0.598,3.685-1.794c0.896-1.195,1.344-2.845,1.344-4.948c0-2.103-0.448-3.752-1.344-4.948
	c-0.896-1.195-2.125-1.794-3.685-1.794c-1.569,0-2.797,0.594-3.684,1.78c-0.887,1.187-1.331,2.841-1.331,4.962
	c0,2.104,0.448,3.753,1.344,4.948C134.074,148.063,135.297,148.661,136.848,148.661z"/>
<path d="M150.861,148.229h0.947c0.539,0,0.919,0.074,1.143,0.223c0.223,0.148,0.334,0.395,0.334,0.738
	c0,0.371-0.098,0.632-0.293,0.78s-0.562,0.223-1.1,0.223h-4.681c-0.316,0-0.557-0.086-0.724-0.258
	c-0.167-0.172-0.251-0.42-0.251-0.745c0-0.344,0.093-0.59,0.279-0.738c0.186-0.148,0.492-0.223,0.919-0.223h0.459h0.808v-12.676
	h-0.808c-0.696,0-1.147-0.065-1.351-0.195c-0.205-0.13-0.307-0.376-0.307-0.738c0-0.315,0.081-0.553,0.244-0.711
	c0.163-0.157,0.406-0.236,0.731-0.236h5.878c1.421,0,2.481,0.067,3.184,0.202c0.7,0.135,1.293,0.364,1.775,0.689
	c0.622,0.418,1.111,0.971,1.47,1.657c0.357,0.688,0.536,1.426,0.536,2.215c0,1.068-0.327,1.985-0.982,2.751
	c-0.654,0.767-1.566,1.298-2.736,1.596c0.24,0.139,0.457,0.302,0.647,0.487s0.374,0.408,0.55,0.668l2.801,4.291h0.459
	c0.52,0,0.877,0.072,1.072,0.216s0.293,0.393,0.293,0.745c0,0.325-0.082,0.573-0.244,0.745s-0.401,0.258-0.717,0.258h-1.574
	c-0.455,0-0.9-0.334-1.338-1.003c-0.055-0.056-0.098-0.103-0.125-0.14l-2.674-4.053c-0.549-0.827-1.002-1.36-1.359-1.603
	c-0.357-0.241-0.828-0.362-1.413-0.362h-1.853V148.229z M150.861,135.553v5.627h2.883c1.301,0,2.277-0.234,2.933-0.703
	s0.981-1.168,0.981-2.097c0-0.938-0.32-1.644-0.961-2.117s-1.598-0.71-2.869-0.71H150.861z"/>
<path d="M165.877,139.3c-0.019,0.696-0.1,1.14-0.244,1.33c-0.144,0.19-0.424,0.285-0.842,0.285c-0.325,0-0.569-0.086-0.731-0.258
	c-0.163-0.172-0.243-0.425-0.243-0.759c0.018-0.288,0.027-0.506,0.027-0.655l0.139-4.597c0.02-0.343,0.111-0.592,0.279-0.745
	c0.167-0.153,0.427-0.229,0.779-0.229h12.105c0.353,0,0.613,0.076,0.78,0.229s0.255,0.402,0.265,0.745l0.152,4.597
	c0,0.168,0.006,0.325,0.015,0.474c0.009,0.149,0.014,0.219,0.014,0.209c0,0.335-0.089,0.583-0.265,0.746
	c-0.176,0.162-0.441,0.243-0.794,0.243c-0.372,0-0.626-0.095-0.767-0.285c-0.139-0.19-0.218-0.634-0.236-1.33l-0.139-3.622h-3.998
	v12.551h2.145h0.543c0.391,0,0.674,0.076,0.851,0.229s0.265,0.397,0.265,0.731c0,0.325-0.084,0.573-0.251,0.745
	s-0.409,0.258-0.724,0.258h-7.815c-0.315,0-0.558-0.086-0.724-0.258c-0.168-0.172-0.252-0.42-0.252-0.745
	c0-0.344,0.092-0.59,0.272-0.738s0.489-0.223,0.927-0.223h0.459h2.146v-12.551h-3.998L165.877,139.3z"/>
<path d="M182.245,150.193h-0.654c-0.334,0-0.588-0.084-0.76-0.251s-0.257-0.418-0.257-0.752c0-0.371,0.101-0.624,0.3-0.759
	s0.656-0.202,1.371-0.202h0.893v-12.551h-0.893c-0.695,0-1.148-0.072-1.357-0.216c-0.209-0.145-0.313-0.406-0.313-0.787
	c0-0.344,0.085-0.597,0.257-0.76c0.172-0.162,0.436-0.243,0.787-0.243h0.627h11.506c0.316,0,0.555,0.095,0.719,0.285
	c0.162,0.19,0.242,0.467,0.242,0.829v3.287c0,0.483-0.068,0.817-0.209,1.003c-0.139,0.187-0.389,0.279-0.752,0.279
	c-0.381,0-0.643-0.103-0.787-0.307c-0.143-0.204-0.215-0.664-0.215-1.379v-1.992h-7.41v4.694h3.648v-0.738
	c0-0.502,0.068-0.85,0.203-1.045c0.133-0.195,0.369-0.292,0.703-0.292c0.324,0,0.549,0.104,0.676,0.312
	c0.125,0.209,0.188,0.657,0.188,1.345v2.591c0,0.696-0.064,1.143-0.195,1.337c-0.131,0.195-0.361,0.293-0.695,0.293
	c-0.336,0-0.564-0.111-0.691-0.334c-0.125-0.224-0.188-0.655-0.188-1.296v-0.487h-3.648v6.171h7.41v-2.257
	c0-0.715,0.072-1.175,0.215-1.379c0.145-0.204,0.406-0.307,0.787-0.307c0.354,0,0.602,0.096,0.746,0.285
	c0.145,0.19,0.215,0.551,0.215,1.08v3.51c0,0.335-0.082,0.59-0.25,0.767s-0.404,0.265-0.711,0.265H182.245z"/>
<path d="M222.863,141.918c0,2.545-0.706,4.632-2.117,6.262c-1.412,1.63-3.218,2.444-5.419,2.444c-2.183,0-3.981-0.816-5.397-2.451
	s-2.124-3.72-2.124-6.255c0-2.562,0.7-4.654,2.103-6.275c1.402-1.62,3.209-2.431,5.419-2.431c2.201,0,4.007,0.817,5.419,2.452
	C222.157,137.298,222.863,139.383,222.863,141.918z M215.327,148.661c1.561,0,2.788-0.598,3.685-1.794
	c0.896-1.195,1.344-2.845,1.344-4.948c0-2.103-0.447-3.752-1.344-4.948c-0.896-1.195-2.124-1.794-3.685-1.794
	c-1.569,0-2.798,0.594-3.685,1.78s-1.33,2.841-1.33,4.962c0,2.104,0.448,3.753,1.345,4.948
	C212.552,148.063,213.776,148.661,215.327,148.661z"/>
<path d="M237.698,144.58c0-0.697,0.069-1.147,0.209-1.352c0.139-0.204,0.403-0.307,0.794-0.307c0.334,0,0.585,0.086,0.752,0.258
	s0.251,0.438,0.251,0.801v0.6v4.582c0,0.325-0.089,0.578-0.265,0.76c-0.177,0.181-0.423,0.271-0.738,0.271h-12.356h-0.654
	c-0.334,0-0.585-0.084-0.752-0.251s-0.251-0.418-0.251-0.752c0-0.371,0.1-0.624,0.3-0.759c0.199-0.135,0.652-0.202,1.357-0.202
	h1.741v-12.551h-1.741c-0.687,0-1.135-0.072-1.344-0.216c-0.209-0.145-0.313-0.406-0.313-0.787c0-0.344,0.086-0.597,0.258-0.76
	c0.172-0.162,0.438-0.243,0.801-0.243h0.599h6.283h0.654c0.334,0,0.59,0.083,0.766,0.251c0.177,0.167,0.265,0.418,0.265,0.752
	c0,0.381-0.104,0.643-0.312,0.787c-0.209,0.144-0.667,0.216-1.372,0.216h-2.341v12.551h7.411V144.58z"/>
<path d="M253.8,148.229c0.716,0,1.173,0.067,1.372,0.202c0.2,0.135,0.3,0.388,0.3,0.759c0,0.381-0.1,0.644-0.3,0.787
	c-0.199,0.144-0.656,0.216-1.372,0.216h-8.455h-0.654c-0.335,0-0.59-0.084-0.767-0.251s-0.265-0.418-0.265-0.752
	c0-0.371,0.103-0.624,0.307-0.759s0.664-0.202,1.379-0.202h3.148v-12.551h-3.148c-0.696,0-1.151-0.072-1.365-0.216
	c-0.214-0.145-0.32-0.406-0.32-0.787c0-0.344,0.088-0.597,0.265-0.76c0.177-0.162,0.441-0.243,0.794-0.243h0.627h8.455h0.655
	c0.334,0,0.587,0.083,0.759,0.251c0.172,0.167,0.258,0.418,0.258,0.752c0,0.381-0.104,0.643-0.313,0.787
	c-0.209,0.144-0.661,0.216-1.358,0.216h-3.147v12.551H253.8z"/>
<path d="M266.713,143.339l2.994-8.72c0.13-0.335,0.309-0.576,0.537-0.725c0.227-0.148,0.555-0.223,0.981-0.223h2.284
	c0.298,0,0.522,0.081,0.676,0.243c0.153,0.163,0.23,0.397,0.23,0.704c0,0.353-0.096,0.597-0.286,0.731s-0.541,0.202-1.052,0.202
	h-0.223l0.39,12.676h0.321c0.604,0,1.007,0.067,1.212,0.202c0.204,0.135,0.306,0.388,0.306,0.759c0,0.325-0.083,0.573-0.25,0.745
	c-0.168,0.172-0.409,0.258-0.725,0.258h-3.914c-0.539,0-0.906-0.074-1.101-0.223c-0.195-0.148-0.293-0.409-0.293-0.78
	c0-0.362,0.116-0.613,0.349-0.752c0.231-0.14,0.678-0.209,1.337-0.209h0.6l-0.293-11.979l-2.758,8.01
	c-0.14,0.39-0.312,0.659-0.516,0.808s-0.511,0.223-0.919,0.223c-0.391,0-0.688-0.076-0.892-0.229
	c-0.205-0.153-0.372-0.42-0.502-0.801l-2.8-8.01l-0.251,11.979h0.934c0.548,0,0.934,0.074,1.156,0.223s0.334,0.395,0.334,0.738
	c0,0.371-0.098,0.632-0.292,0.78c-0.195,0.148-0.566,0.223-1.114,0.223h-3.9c-0.325,0-0.569-0.084-0.731-0.251
	c-0.163-0.167-0.244-0.418-0.244-0.752c0-0.371,0.103-0.624,0.307-0.759s0.608-0.202,1.212-0.202h0.307l0.403-12.676h-0.223
	c-0.511,0-0.863-0.067-1.059-0.202s-0.292-0.379-0.292-0.731c0-0.307,0.078-0.541,0.236-0.704c0.158-0.162,0.386-0.243,0.683-0.243
	h2.284c0.428,0,0.755,0.074,0.982,0.223s0.401,0.39,0.522,0.725L266.713,143.339z"/>
<path d="M284.376,148.229c0.455,0,0.784,0.076,0.989,0.229c0.204,0.153,0.306,0.397,0.306,0.731c0,0.371-0.097,0.632-0.292,0.78
	s-0.566,0.223-1.114,0.223h-6.812c-0.316,0-0.558-0.086-0.725-0.258s-0.251-0.42-0.251-0.745s0.081-0.566,0.244-0.725
	c0.162-0.157,0.415-0.236,0.759-0.236h1.797v-12.551h-0.975c-0.817,0-1.326-0.072-1.525-0.216c-0.2-0.145-0.3-0.406-0.3-0.787
	c0-0.325,0.084-0.573,0.251-0.745s0.408-0.258,0.725-0.258h6.449c2.257,0,3.97,0.437,5.14,1.31c1.171,0.873,1.756,2.159,1.756,3.858
	s-0.581,2.98-1.741,3.845c-1.161,0.863-2.879,1.295-5.154,1.295h-2.438v4.249H284.376z M281.465,135.678v6.463h2.604
	c1.458,0,2.549-0.269,3.273-0.808c0.725-0.538,1.087-1.352,1.087-2.438c0-1.068-0.365-1.871-1.094-2.41
	c-0.729-0.538-1.817-0.808-3.267-0.808H281.465z"/>
<path d="M305.159,148.229c0.716,0,1.173,0.067,1.372,0.202c0.2,0.135,0.3,0.388,0.3,0.759c0,0.381-0.1,0.644-0.3,0.787
	c-0.199,0.144-0.656,0.216-1.372,0.216h-8.455h-0.654c-0.335,0-0.59-0.084-0.767-0.251s-0.265-0.418-0.265-0.752
	c0-0.371,0.103-0.624,0.307-0.759s0.664-0.202,1.379-0.202h3.148v-12.551h-3.148c-0.696,0-1.151-0.072-1.365-0.216
	c-0.214-0.145-0.32-0.406-0.32-0.787c0-0.344,0.088-0.597,0.265-0.76c0.177-0.162,0.441-0.243,0.794-0.243h0.627h8.455h0.655
	c0.334,0,0.587,0.083,0.759,0.251c0.172,0.167,0.258,0.418,0.258,0.752c0,0.381-0.104,0.643-0.313,0.787
	c-0.209,0.144-0.661,0.216-1.358,0.216h-3.147v12.551H305.159z"/>
<path d="M325.581,141.918c0,2.545-0.706,4.632-2.117,6.262c-1.412,1.63-3.218,2.444-5.419,2.444c-2.183,0-3.981-0.816-5.397-2.451
	s-2.124-3.72-2.124-6.255c0-2.562,0.7-4.654,2.103-6.275c1.402-1.62,3.209-2.431,5.419-2.431c2.201,0,4.007,0.817,5.419,2.452
	C324.875,137.298,325.581,139.383,325.581,141.918z M318.044,148.661c1.561,0,2.788-0.598,3.685-1.794
	c0.896-1.195,1.344-2.845,1.344-4.948c0-2.103-0.447-3.752-1.344-4.948c-0.896-1.195-2.124-1.794-3.685-1.794
	c-1.569,0-2.798,0.594-3.685,1.78s-1.33,2.841-1.33,4.962c0,2.104,0.448,3.753,1.345,4.948
	C315.27,148.063,316.494,148.661,318.044,148.661z"/>
</svg>
