<?xml version="1.0" encoding="utf-8"?>
<!-- Generator: Adobe Illustrator 16.0.0, SVG Export Plug-In . SVG Version: 6.00 Build 0)  -->
<!DOCTYPE svg PUBLIC "-//W3C//DTD SVG 1.1//EN" "http://www.w3.org/Graphics/SVG/1.1/DTD/svg11.dtd">
<svg version="1.1" id="Layer_1" xmlns="http://www.w3.org/2000/svg" xmlns:xlink="http://www.w3.org/1999/xlink" x="0px" y="0px"
	 width="340.157px" height="340.158px" viewBox="0 0 340.157 340.158" enable-background="new 0 0 340.157 340.158"
	 xml:space="preserve">
<g>
	<path fill-rule="evenodd" clip-rule="evenodd" d="M174.97,299.171c-8.513,0.223-17.025,0.539-25.539,0.648
		c-17.956,0.231-35.92,0.724-53.868,0.41c-15.457-0.271-30.864,0.479-46.293,0.825c-5.385,0.121-10.787-0.32-16.176-0.602
		c-5.771-0.3-11.502-0.213-17.208,0.876c-2.635,0.503-5.328,0.626-7.979-0.085c-3.196-0.857-5.102-2.865-5.271-6.146
		c-0.251-4.868-0.317-9.75-0.317-14.626c0-11.198,0.292-22.401,0.072-33.595c-0.152-7.786-0.919-15.563-1.481-23.34
		c-0.806-11.145-0.964-22.301-0.473-33.456c0.379-8.589,1.249-17.16,1.48-25.75c0.315-11.672,0.098-23.359,0.359-35.034
		c0.201-8.951,0.741-17.896,1.227-26.838c0.272-4.999,0.204-9.95-0.214-14.959c-0.461-5.514-0.41-11.126,0.036-16.646
		c0.673-8.328,0.38-16.506-1.416-24.682c-0.526-2.397-0.431-5.021-0.139-7.485c0.339-2.862,1.677-3.877,4.533-4.159
		c10.787-1.064,21.576-2.095,32.44-1.87c3.358,0.07,6.72-0.031,10.08,0.019c11.608,0.174,23.188-0.189,34.741-1.45
		c10.284-1.123,20.615-0.945,30.928-0.532c9.149,0.366,18.28,1.161,27.429,1.53c11.533,0.465,23.02-0.494,34.496-1.551
		c12.264-1.129,24.527-2.278,36.805-3.246c9.407-0.742,18.834-1.258,28.257-1.781c2.748-0.153,5.521-0.108,8.271,0.055
		c6.486,0.385,12.954,0.272,19.412-0.401c7.623-0.795,15.26-0.824,22.889-0.268c4.599,0.335,9.078-0.218,13.597-0.925
		c3.899-0.609,7.868-0.764,11.788-1.257c4.474-0.563,8.929-1.278,13.392-1.925c0.197-0.029,0.397-0.055,0.597-0.056
		c2.283-0.01,6.23,2.984,7.008,5.138c1.073,2.975,1.057,5.964,0.857,9.089c-0.322,5.059-0.342,10.148-0.24,15.22
		c0.205,10.197,0.731,20.389,0.835,30.586c0.088,8.596-0.288,17.195-0.352,25.794c-0.025,3.475,0.296,6.952,0.345,10.429
		c0.039,2.874-0.127,5.75-0.133,8.626c-0.005,2.354,0.139,4.708,0.139,7.062c0,7.914-0.066,15.827-0.047,23.741
		c0.018,6.794,0.152,13.588,0.166,20.381c0.007,3.238-0.131,6.478-0.232,9.716c-0.429,13.592-0.911,27.183-1.291,40.776
		c-0.321,11.514-0.549,23.03-0.779,34.546c-0.099,4.912-0.215,9.83-0.098,14.739c0.066,2.781,0.653,5.546,0.887,8.328
		c0.167,1.986,0.276,3.996,0.164,5.982c-0.254,4.538-2.728,6.936-7.278,7.064c-8.352,0.236-16.707,0.574-25.06,0.538
		c-16.971-0.073-33.91,0.684-50.844,1.601c-11.956,0.648-23.907,0.577-35.866,0.271c-14.875-0.38-29.75-0.729-44.625-1.092
		C174.976,299.329,174.973,299.25,174.97,299.171z M106.03,157.165c1.392-0.13,2.658-0.243,3.922-0.369
		c9.504-0.943,18.975-1.948,28.344-4.043c8.176-1.828,16.544-2.796,24.829-4.139c10.179-1.649,20.389-3.13,30.532-4.976
		c15.295-2.783,30.546-5.812,45.813-8.749c10.557-2.031,21.144-3.921,31.655-6.164c17.049-3.639,33.557-9.392,50.583-13.136
		c1.194-0.263,1.555-0.939,1.602-1.992c0.245-5.51,0.613-11.019,0.697-16.532c0.085-5.635-0.301-11.279-0.135-16.909
		c0.204-6.952,0.814-13.891,1.158-20.839c0.3-6.069,0.51-12.144,0.683-18.217c0.057-2.003-0.261-2.347-2.264-2.39
		c-4.995-0.109-9.998-0.266-14.988-0.103c-9.551,0.311-19.096,0.833-28.644,1.263c-6.641,0.299-13.272-0.355-19.89-0.353
		c-14.588,0.005-29.187,0.422-43.762,1.088c-11.578,0.529-23.126,1.689-34.688,2.547c-7.018,0.521-14.032,1.12-21.058,1.464
		c-8.186,0.4-16.382,0.597-24.576,0.815c-7.872,0.21-15.747,0.35-23.621,0.492c-3.874,0.07-7.761-0.104-11.622,0.146
		c-7.021,0.453-14.023,1.179-21.039,1.712c-3.305,0.251-6.63,0.227-9.934,0.492c-4.342,0.349-8.662,0.989-13.007,1.265
		c-3.703,0.235-7.428,0.111-11.142,0.185c-3.476,0.069-6.954,0.337-10.425,0.255c-6.355-0.15-12.707-0.483-19.059-0.767
		c-0.866-0.039-1.214,0.182-1.176,1.13c0.072,1.796,0.039,3.598-0.008,5.396c-0.198,7.556-0.593,15.111-0.573,22.665
		c0.017,6.27,0.727,12.526,0.246,18.816c-0.49,6.417-0.879,12.845-1.158,19.275c-0.3,6.906-0.511,13.82-0.593,20.732
		c-0.076,6.393,0.067,12.788,0.12,19.182c0.026,3.196-0.043,6.398,0.137,9.585c0.121,2.147,0.98,2.682,3.097,2.47
		c8.592-0.86,17.188-1.677,25.774-2.595c3.096-0.331,6.176-0.849,9.245-1.384c1.764-0.308,1.746-0.4,1.579-2.122
		c-0.085-0.875-0.141-1.754-0.243-2.627c-0.628-5.355-1.253-10.711-1.906-16.063c-0.256-2.101-0.554-4.197-0.885-6.287
		c-0.179-1.127-0.759-1.694-2.061-1.579c-4.3,0.382-8.617,0.581-12.914,0.997c-2.726,0.263-5.412,0.557-8.045-0.479
		c-1.687-0.664-2.232-2.361-1.224-3.882c0.176-0.266,0.367-0.526,0.58-0.763c4.757-5.291,9.438-10.652,14.305-15.84
		c3.171-3.38,6.625-6.494,9.93-9.75c5.35-5.271,11.137-10.116,15.693-16.163c0.542-0.719,1.274-1.348,2.034-1.839
		c1.247-0.807,2.612-1.027,3.94-0.118c3.363,2.302,6.77,4.546,10.061,6.948c12.654,9.235,24,20.192,37.415,28.431
		c0.417,0.256,0.861,0.864,0.871,1.317c0.037,1.634,0.671,3.006,1.455,4.379c0.791,1.386,0.545,1.972-1.003,2.306
		c-2.811,0.606-5.639,1.144-8.471,1.646c-2.429,0.431-4.874,0.772-7.337,1.157C105.266,141.855,105.646,149.461,106.03,157.165z
		 M324.34,199.921c0.007,0,0.014,0,0.021,0c0-3.999,0.025-7.999-0.005-11.999c-0.143-19.036-0.299-38.073-0.458-57.11
		c-0.006-0.758-0.039-1.523-0.146-2.273c-0.179-1.242-0.54-1.384-1.678-0.922c-2.331,0.946-4.637,1.988-7.032,2.733
		c-24.087,7.495-48.734,12.263-73.772,15.159c-7.145,0.826-14.293,1.716-21.375,2.943c-6.137,1.064-12.15,2.824-18.275,3.967
		c-16.775,3.132-33.575,6.139-50.377,9.126c-18.94,3.367-38.047,5.557-57.129,7.903c-8.529,1.048-17.102,1.732-25.631,2.775
		c-11.347,1.389-22.679,2.908-34,4.487c-5.817,0.812-11.615,1.787-17.39,2.86c-3.4,0.632-4.253,1.868-3.94,5.277
		c0.539,5.869,0.574,11.733,0.247,17.614c-0.309,5.549-0.495,11.09,0.014,16.656c0.574,6.285,0.755,12.605,1.258,18.898
		c0.792,9.906,0.555,19.823,0.442,29.738c-0.067,5.918-0.286,11.836-0.294,17.753c-0.006,4.516,0.899,5.387,5.352,5.688
		c2.832,0.192,5.683,0.192,8.494,0.534c1.74,0.212,2.885-0.276,3.925-1.617c1.714-2.211,3.476-4.395,5.344-6.476
		c7.734-8.612,14.854-17.697,21.426-27.228c4.631-6.715,9.311-13.403,14.194-19.936c11.66-15.599,23.447-31.102,35.204-46.628
		c0.914-1.207,1.931-2.352,3.012-3.412c1.267-1.242,2.097-1.168,3.187,0.231c0.981,1.261,1.812,2.637,2.779,3.909
		c7.945,10.457,17.58,19.204,27.778,27.377c0.464,0.372,1.014,0.638,1.525,0.949c0.569,0.346,1.03,0.272,1.439-0.293
		c0.562-0.777,1.23-1.482,1.75-2.285c6.155-9.493,12.36-18.955,18.41-28.516c5.046-7.975,9.811-16.131,15.85-23.428
		c0.863-1.043,1.84-1.995,2.797-2.956c0.58-0.583,1.254-0.547,1.792,0.045c0.642,0.707,1.318,1.422,1.777,2.247
		c2.47,4.442,5.794,8.215,9.117,12.013c6.632,7.579,13.391,15.027,19.35,23.202c19.062,26.148,38.878,51.723,59.536,76.635
		c2.781,3.354,5.689,6.603,8.543,9.896c2.173,2.507,4.898,3.642,8.216,3.263c3.69-0.423,7.411-0.686,11.063-1.332
		c4.596-0.812,9.166-1.338,13.822-0.72c0.749,0.099,1.519,0.076,2.277,0.062c3.604-0.065,4.27-0.689,3.95-4.274
		c-0.308-3.461-1.035-6.889-1.252-10.352c-0.486-7.779-1.009-15.569-1.087-23.36C324.226,232.476,324.34,216.198,324.34,199.921z
		 M78.72,161.599c2.904,0.03,3.789-1.026,3.21-3.583c-0.291-1.284-0.571-2.59-1.059-3.805c-1.604-3.997-3.208-8-5.002-11.914
		c-0.871-1.9-2.971-1.958-4.214-0.24c-0.467,0.645-0.819,1.522-0.84,2.304c-0.03,1.132,0.17,2.307,0.483,3.403
		c0.59,2.071,1.294,4.113,2.017,6.144c0.655,1.842,1.37,3.665,2.109,5.475C76.068,160.963,77.242,161.775,78.72,161.599z"/>
	<path fill-rule="evenodd" clip-rule="evenodd" d="M151.397,324.941c0.298-0.571,0.51-0.942,0.691-1.328
		c2.174-4.633,4.35-9.265,6.507-13.905c0.303-0.65,0.626-1.379,1.439-1.034c0.397,0.169,0.721,0.854,0.812,1.354
		c1.283,7.04,2.522,14.088,3.768,21.135c0.245,1.389,0.127,1.548-1.277,1.525c-3.266-0.05-2.793,0.537-3.306-2.724
		c-0.54-3.434-1.088-6.867-1.688-10.652c-0.31,0.602-0.493,0.918-0.642,1.25c-1.703,3.793-3.38,7.598-5.13,11.369
		c-0.205,0.441-0.783,0.934-1.226,0.972c-0.353,0.03-0.924-0.519-1.122-0.94c-1.725-3.694-3.387-7.419-5.071-11.133
		c-0.178-0.394-0.376-0.778-0.798-1.17c-0.181,1.106-0.371,2.212-0.541,3.319c-0.432,2.806-0.888,5.608-1.264,8.422
		c-0.133,0.997-0.545,1.441-1.554,1.298c-0.235-0.033-0.479-0.005-0.719-0.005c-2.361,0-2.366-0.001-1.961-2.268
		c1.229-6.887,2.45-13.776,3.715-20.657c0.077-0.416,0.426-0.963,0.787-1.107c0.667-0.267,1.104,0.207,1.328,0.852
		c0.079,0.226,0.203,0.435,0.305,0.651c2.102,4.49,4.202,8.98,6.305,13.471C150.922,323.995,151.104,324.348,151.397,324.941z"/>
	<path fill-rule="evenodd" clip-rule="evenodd" d="M266.761,332.974c-6.815-0.024-12.197-5.429-12.165-12.216
		c0.032-6.775,5.466-12.16,12.257-12.146c6.82,0.014,12.301,5.514,12.257,12.299C279.066,327.641,273.583,332.998,266.761,332.974z
		 M274.648,320.985c0.076-4.244-3.396-7.864-7.634-7.96c-4.289-0.096-7.959,3.442-8.005,7.719c-0.045,4.178,3.428,7.732,7.644,7.822
		C270.93,328.657,274.573,325.202,274.648,320.985z"/>
	<path fill-rule="evenodd" clip-rule="evenodd" d="M186.797,320.597c0.341,0.175,0.592,0.296,0.835,0.43
		c4.355,2.401,4.507,7.979,0.191,10.469c-1.162,0.67-2.615,1.052-3.963,1.141c-2.665,0.176-5.351,0.032-8.026,0.069
		c-0.874,0.012-1.214-0.306-1.212-1.186c0.018-7.151,0.019-14.303,0-21.453c-0.003-0.884,0.342-1.194,1.214-1.181
		c2.517,0.038,5.033-0.01,7.55,0.025c1.862,0.026,3.53,0.64,4.917,1.907c2.433,2.224,2.618,5.581,0.421,8.031
		C188.17,319.466,187.493,319.971,186.797,320.597z M179.101,328.656c1.318,0,2.549,0.012,3.778-0.002
		c1.897-0.022,3.155-1.065,3.339-2.746c0.164-1.511-0.991-2.973-2.777-3.187c-1.404-0.169-2.845-0.034-4.34-0.034
		C179.101,324.652,179.101,326.553,179.101,328.656z M179.069,318.783c1.462,0,2.813,0.095,4.146-0.026
		c1.343-0.122,2.27-1.334,2.335-2.765c0.065-1.417-0.683-2.708-1.986-2.874c-1.465-0.186-2.972-0.042-4.495-0.042
		C179.069,314.988,179.069,316.81,179.069,318.783z"/>
	<path fill-rule="evenodd" clip-rule="evenodd" d="M322.49,317.818c0,0.422,0,0.845,0,1.267c0,4.079-0.024,8.158,0.017,12.236
		c0.01,1.031-0.319,1.418-1.383,1.39c-3.513-0.092-3.031,0.448-3.042-3.073c-0.021-6.357-0.021-12.716,0.018-19.073
		c0.004-0.639,0.14-1.594,0.554-1.847c0.842-0.513,1.404,0.362,1.947,0.938c4.008,4.245,8.021,8.484,12.019,12.739
		c0.29,0.309,0.463,0.727,0.691,1.093c0.148-0.097,0.297-0.194,0.445-0.291c0-0.426,0-0.851,0-1.275
		c0-3.879,0.024-7.758-0.016-11.636c-0.011-1.015,0.285-1.434,1.364-1.404c3.593,0.097,3.059-0.455,3.072,3.028
		c0.024,6.518,0.018,13.036-0.014,19.553c-0.003,0.489-0.301,0.977-0.462,1.465c-0.55-0.217-1.262-0.282-1.624-0.673
		c-4.189-4.513-8.325-9.074-12.477-13.622c-0.269-0.294-0.545-0.58-0.818-0.87C322.686,317.781,322.588,317.799,322.49,317.818z"/>
	<path fill-rule="evenodd" clip-rule="evenodd" d="M241.335,323.088c1.483,2.768,2.904,5.403,4.311,8.047
		c0.657,1.236,0.447,1.39-0.921,1.59c-2.493,0.364-3.981-0.469-4.835-2.93c-0.675-1.946-1.841-3.718-2.726-5.596
		c-0.321-0.682-0.728-0.944-1.471-0.892c-0.867,0.062-1.741,0.015-2.767,0.015c0,2.415-0.005,4.723,0.001,7.03
		c0.007,2.621,0.099,2.33-2.32,2.34c-0.199,0.001-0.399,0.001-0.6,0c-1.481-0.008-1.504-0.027-1.505-1.581
		c-0.002-5.715,0-11.43,0-17.146c0-1.278,0.042-2.56-0.014-3.836c-0.042-0.95,0.336-1.258,1.264-1.246
		c3.077,0.039,6.155-0.009,9.232,0.022c3.383,0.033,6.222,2.229,7.085,5.418c0.84,3.104-0.479,6.207-3.402,7.995
		C242.267,322.566,241.852,322.792,241.335,323.088z M233.03,319.649c2.046,0,3.955,0.093,5.851-0.028
		c1.659-0.106,2.921-1.576,3.012-3.205c0.081-1.456-0.938-3.082-2.46-3.24c-2.104-0.218-4.247-0.055-6.402-0.055
		C233.03,315.293,233.03,317.397,233.03,319.649z"/>
	<path fill-rule="evenodd" clip-rule="evenodd" d="M303.235,324.798c-0.572,0-1.161,0.003-1.75-0.002
		c-0.279-0.002-0.622,0.081-0.826-0.048c-1.201-0.759-0.377-1.956-0.566-2.941c-0.122-0.634,0.288-0.933,0.934-0.93
		c1.999,0.011,3.999-0.032,5.995,0.045c0.304,0.012,0.836,0.543,0.843,0.844c0.065,2.757,0.063,5.516,0.006,8.272
		c-0.007,0.336-0.382,0.807-0.709,0.972c-3.61,1.82-7.398,2.578-11.375,1.495c-4.721-1.286-8.207-5.381-8.728-10.091
		c-0.577-5.22,1.833-9.955,6.291-12.359c4.335-2.339,9.843-1.783,13.634,1.33c0.743,0.61,0.805,1.123,0.077,1.736
		c-0.061,0.051-0.11,0.116-0.167,0.172c-0.601,0.582-1.13,1.488-1.826,1.643c-0.57,0.127-1.343-0.635-2.021-1.012
		c-2.891-1.605-6.384-1.185-8.782,1.062c-2.493,2.334-3.204,6.056-1.749,9.143c1.432,3.032,4.553,4.782,7.828,4.385
		c0.198-0.023,0.396-0.053,0.591-0.1C303.636,327.756,303.593,328.246,303.235,324.798z"/>
	<path fill-rule="evenodd" clip-rule="evenodd" d="M97.14,324.798c-0.396,0-0.714,0.034-1.023-0.007
		c-0.682-0.092-1.874-0.085-1.946-0.359c-0.257-0.968-0.17-2.039-0.108-3.064c0.011-0.179,0.534-0.458,0.825-0.464
		c1.998-0.041,3.998-0.063,5.993,0.022c0.312,0.014,0.851,0.604,0.859,0.938c0.071,2.676,0.068,5.354,0.009,8.031
		c-0.009,0.381-0.35,0.93-0.688,1.101c-3.725,1.883-7.63,2.636-11.716,1.42c-4.65-1.385-8.044-5.605-8.443-10.333
		c-0.441-5.218,2.106-9.904,6.623-12.183c4.319-2.181,9.811-1.535,13.41,1.542c0.616,0.527,0.763,0.992,0.118,1.567
		c-0.059,0.054-0.109,0.116-0.167,0.173c-0.627,0.612-1.175,1.561-1.906,1.731c-0.595,0.14-1.41-0.646-2.123-1.031
		c-2.87-1.55-6.305-1.126-8.682,1.077c-2.504,2.321-3.233,6.031-1.792,9.133c1.409,3.035,4.528,4.805,7.803,4.427
		c0.159-0.019,0.318-0.042,0.474-0.077C97.657,327.779,97.387,328.138,97.14,324.798z"/>
	<path fill-rule="evenodd" clip-rule="evenodd" d="M129.017,332.693c-1.442,0.438-2.283-0.469-2.641-1.914
		c-0.508-2.048-1.692-2.718-3.791-2.509c-2.175,0.218-4.389,0.074-6.585,0.034c-0.701-0.013-1.137,0.188-1.337,0.874
		c-0.078,0.266-0.226,0.51-0.345,0.764c-1.528,3.271-0.648,2.7-4.379,2.743c-1.205,0.014-1.375-0.268-0.869-1.367
		c1.501-3.265,3.021-6.52,4.535-9.779c1.833-3.946,3.652-7.9,5.522-11.829c0.208-0.437,0.71-1.011,1.079-1.014
		c0.361-0.002,0.867,0.579,1.07,1.016c3.268,7.022,6.498,14.062,9.736,21.099c0.816,1.773,0.748,1.881-1.165,1.883
		C129.647,332.693,129.448,332.693,129.017,332.693z M120.119,316.99c-1.17,2.611-2.233,4.985-3.331,7.437c2.316,0,4.44,0,6.741,0
		C122.389,321.939,121.313,319.594,120.119,316.99z"/>
	<path fill-rule="evenodd" clip-rule="evenodd" d="M217.749,332.693c-1.395,0.42-2.299-0.368-2.659-1.871
		c-0.504-2.103-1.739-2.78-3.884-2.552c-2.095,0.224-4.233,0.094-6.351,0.027c-0.868-0.027-1.349,0.257-1.581,1.07
		c-0.087,0.304-0.261,0.582-0.392,0.874c-1.131,2.507-2.006,2.979-4.692,2.405c-0.257-0.055-0.5-0.554-0.586-0.889
		c-0.055-0.214,0.19-0.506,0.308-0.76c3.282-7.068,6.556-14.141,9.871-21.194c0.221-0.471,0.752-0.795,1.14-1.188
		c0.378,0.403,0.891,0.744,1.112,1.22c3.169,6.812,6.299,13.644,9.438,20.47C220.57,332.693,220.569,332.693,217.749,332.693z
		 M208.817,316.988c-1.199,2.671-2.252,5.016-3.354,7.469c2.325,0,4.458,0,6.77,0C211.11,322.001,210.04,319.662,208.817,316.988z"
		/>
	<path fill-rule="evenodd" clip-rule="evenodd" d="M90.181,14.354c0,0.664,0,1.329,0,1.993c0,2.678-0.023,5.357,0.013,8.035
		c0.012,0.862-0.249,1.216-1.162,1.197c-2.564-0.054-2.18,0.159-2.188-2.179c-0.016-4.837-0.02-9.675,0.015-14.512
		c0.004-0.571,0.273-1.14,0.42-1.709c0.548,0.323,1.205,0.542,1.628,0.984c2.956,3.092,5.866,6.228,8.78,9.359
		c0.263,0.283,0.451,0.637,0.673,0.958c0.109-0.068,0.219-0.135,0.329-0.203c0.021-0.376,0.059-0.752,0.059-1.128
		c0.005-2.838,0.023-5.677-0.009-8.515c-0.009-0.837,0.201-1.239,1.141-1.211c2.547,0.074,2.268-0.272,2.273,2.222
		c0.01,4.958,0.015,9.915-0.018,14.872c-0.003,0.447-0.299,0.893-0.459,1.339c-0.429-0.226-0.961-0.356-1.271-0.692
		c-3.036-3.291-6.034-6.617-9.044-9.932c-0.293-0.322-0.592-0.639-0.888-0.958C90.376,14.3,90.279,14.327,90.181,14.354z"/>
	<path fill-rule="evenodd" clip-rule="evenodd" d="M122.881,18.253c0-3.109-0.02-6.219,0.021-9.327
		c0.006-0.488,0.241-1.362,0.456-1.389c0.884-0.114,1.806-0.005,2.699,0.124c0.114,0.017,0.196,0.64,0.197,0.982
		c0.012,5.357,0.017,10.715-0.01,16.072c-0.002,0.376-0.267,0.75-0.41,1.125c-0.407-0.179-0.928-0.253-1.205-0.553
		c-3.144-3.41-6.253-6.851-9.363-10.292c-0.236-0.261-0.408-0.579-0.61-0.87c-0.105,0.058-0.21,0.117-0.316,0.175
		c-0.021,0.373-0.06,0.746-0.061,1.118c-0.005,2.999-0.031,5.998,0.014,8.996c0.013,0.906-0.312,1.248-1.187,1.154
		c-0.316-0.034-0.643-0.035-0.958,0c-0.939,0.105-1.248-0.284-1.241-1.23c0.037-5.277,0.007-10.555,0.038-15.832
		c0.003-0.445,0.293-0.888,0.45-1.332c0.438,0.207,0.987,0.311,1.299,0.639c3.06,3.215,6.082,6.464,9.106,9.712
		c0.268,0.288,0.477,0.631,0.714,0.948C122.637,18.399,122.759,18.326,122.881,18.253z"/>
	<path fill-rule="evenodd" clip-rule="evenodd" d="M149.919,25.526c-1.14,0-2.101,0.126-2.999-0.059
		c-0.393-0.081-0.816-0.751-0.949-1.23c-0.458-1.654-1.411-2.247-3.136-2.049c-1.537,0.176-3.113-0.019-4.665,0.074
		c-0.437,0.025-0.865,0.463-1.261,0.759c-0.14,0.104-0.174,0.351-0.257,0.533c-0.987,2.183-1.656,2.48-4.203,1.772
		c0.137-0.403,0.238-0.814,0.412-1.191c2.458-5.327,4.917-10.652,7.405-15.965c0.183-0.39,0.583-0.677,0.882-1.012
		c0.311,0.314,0.74,0.574,0.915,0.952c2.489,5.356,4.945,10.727,7.401,16.098C149.624,24.553,149.716,24.927,149.919,25.526z
		 M138.582,19.238c1.779,0,3.351,0,5.125,0c-0.863-1.889-1.663-3.639-2.589-5.667C140.206,15.608,139.421,17.361,138.582,19.238z"/>
	<path fill-rule="evenodd" clip-rule="evenodd" d="M71.898,22.225c-0.24,0-0.484,0.033-0.718-0.005
		c-2.17-0.351-3.785,0.132-4.323,2.589c-0.155,0.706-2.984,1.141-3.397,0.572c-0.136-0.188-0.083-0.62,0.033-0.871
		c2.569-5.583,5.153-11.159,7.761-16.723c0.126-0.27,0.51-0.594,0.759-0.582c0.256,0.013,0.595,0.359,0.725,0.64
		c2.567,5.54,5.105,11.093,7.662,16.637c0.372,0.806,0.114,1.058-0.721,1.092c-2.289,0.093-2.356,0.143-3.182-1.939
		c-0.436-1.097-1.008-1.589-2.207-1.43C73.507,22.31,72.697,22.225,71.898,22.225z M74.506,19.243
		c-0.87-1.894-1.682-3.662-2.6-5.661c-0.91,2.041-1.695,3.802-2.523,5.661C71.172,19.243,72.751,19.243,74.506,19.243z"/>
	<path fill-rule="evenodd" clip-rule="evenodd" d="M41.286,25.547c-1.141,0-2.03,0.108-2.869-0.048
		c-0.385-0.072-0.862-0.614-0.973-1.03c-0.51-1.92-1.676-2.524-3.601-2.279c-1.417,0.18-2.879-0.025-4.312,0.072
		c-0.438,0.03-0.871,0.461-1.257,0.77c-0.167,0.133-0.211,0.422-0.31,0.641c-0.936,2.072-1.688,2.386-4.166,1.632
		c0.126-0.361,0.222-0.731,0.379-1.072c2.481-5.371,4.963-10.741,7.475-16.098c0.18-0.383,0.594-0.657,0.899-0.982
		c0.301,0.33,0.708,0.61,0.887,0.996c2.475,5.329,4.921,10.672,7.366,16.016C40.964,24.512,41.06,24.888,41.286,25.547z
		 M32.478,13.566c-0.907,2.03-1.7,3.805-2.532,5.666c1.806,0,3.378,0,5.118,0C34.203,17.348,33.402,15.593,32.478,13.566z"/>
	<path fill-rule="evenodd" clip-rule="evenodd" d="M13.167,7.152c1.785-0.006,3.69,0.696,5.367,2.068
		c0.559,0.457,0.646,0.87,0.089,1.371c-0.208,0.187-0.415,0.382-0.583,0.604c-0.601,0.791-1.111,0.927-2.042,0.258
		c-2.427-1.744-5.579-1.342-7.519,0.777c-2.051,2.242-2.138,5.818-0.198,8.15c1.833,2.205,4.94,2.699,7.503,1.22
		c0.458-0.264,1.147-0.732,1.431-0.573c0.668,0.375,1.229,1.022,1.67,1.67c0.123,0.181-0.221,0.86-0.518,1.119
		c-2.792,2.435-7.192,2.74-10.553,0.779c-3.699-2.157-5.448-6.521-4.269-10.648C4.728,9.814,8.446,7.078,13.167,7.152z"/>
	<path fill-rule="evenodd" clip-rule="evenodd" d="M50.77,18.926c0,1.909-0.042,3.624,0.016,5.335
		c0.032,0.969-0.264,1.344-1.288,1.325c-2.128-0.042-2.129,0.01-2.13-2.146c0-4.878,0.024-9.757-0.019-14.635
		c-0.009-1.021,0.252-1.438,1.342-1.388c1.756,0.082,3.518,0.002,5.277,0.027c3.268,0.047,5.801,2.5,5.833,5.619
		c0.033,3.197-2.451,5.741-5.746,5.857C53.023,18.957,51.988,18.926,50.77,18.926z M50.85,15.63
		c0.273,0.045,0.502,0.113,0.731,0.114c0.837,0.002,1.681,0.042,2.512-0.042c1.384-0.14,2.35-1.243,2.351-2.573
		c0-1.269-0.934-2.334-2.313-2.458c-1.059-0.095-2.134-0.019-3.28-0.019C50.85,12.356,50.85,13.973,50.85,15.63z"/>
	<path fill-rule="evenodd" clip-rule="evenodd" d="M270.958,301.918c1.194-0.008,2.158,0.907,2.183,2.075
		c0.024,1.198-0.999,2.236-2.189,2.222c-1.147-0.014-2.109-1.001-2.114-2.169C268.832,302.864,269.766,301.927,270.958,301.918z"/>
	<path fill-rule="evenodd" clip-rule="evenodd" d="M262.592,306.215c-1.136-0.027-2.11-1.044-2.101-2.191
		c0.01-1.17,0.969-2.107,2.153-2.105c1.252,0.003,2.194,0.978,2.145,2.218C264.741,305.299,263.744,306.244,262.592,306.215z"/>
</g>
</svg>
